<mxfile host="app.diagrams.net" agent="Mozilla/5.0 (Macintosh; Intel Mac OS X 10_15_7) AppleWebKit/537.36 (KHTML, like Gecko) Chrome/126.0.0.0 Safari/537.36" version="24.7.5">
  <diagram name="Page-1" id="-xR-jfWQP4zF7vphYe8y">
    <mxGraphModel dx="709" dy="708" grid="1" gridSize="10" guides="1" tooltips="1" connect="1" arrows="1" fold="1" page="1" pageScale="1" pageWidth="850" pageHeight="1100" math="1" shadow="0">
      <root>
        <mxCell id="0" />
        <mxCell id="1" parent="0" />
        <mxCell id="_cselBX3uVpOJDiEf7tq-41" value="&lt;font style=&quot;font-size: 25px;&quot;&gt;Parameter sharing&lt;/font&gt;" style="text;html=1;align=center;verticalAlign=middle;whiteSpace=wrap;rounded=0;" parent="1" vertex="1">
          <mxGeometry x="360.5" y="120" width="270" height="60" as="geometry" />
        </mxCell>
        <mxCell id="TkJeqCvFJIjOYNM9dAF7-2" value="\(V(\cdot; \theta)\)" style="rounded=1;whiteSpace=wrap;html=1;fillColor=#d5e8d4;strokeColor=#82b366;strokeWidth=3;fontSize=25;" parent="1" vertex="1">
          <mxGeometry x="485.5" y="250" width="120" height="50" as="geometry" />
        </mxCell>
        <mxCell id="TkJeqCvFJIjOYNM9dAF7-8" style="edgeStyle=orthogonalEdgeStyle;rounded=0;orthogonalLoop=1;jettySize=auto;html=1;entryX=0;entryY=0.5;entryDx=0;entryDy=0;" parent="1" source="TkJeqCvFJIjOYNM9dAF7-9" edge="1">
          <mxGeometry relative="1" as="geometry">
            <mxPoint x="485.5" y="275" as="targetPoint" />
          </mxGeometry>
        </mxCell>
        <mxCell id="TkJeqCvFJIjOYNM9dAF7-9" value="&lt;font style=&quot;font-size: 20px;&quot;&gt;\(h_i^t\)&lt;/font&gt;" style="text;html=1;align=center;verticalAlign=middle;whiteSpace=wrap;rounded=0;" parent="1" vertex="1">
          <mxGeometry x="385.5" y="255" width="40" height="40" as="geometry" />
        </mxCell>
        <mxCell id="b1bb9-b2NGOC_ZLU9OX--1" value="\(\pi(\cdot; \phi)\)" style="rounded=1;whiteSpace=wrap;html=1;fillColor=#ffe6cc;strokeColor=#d79b00;strokeWidth=3;fontSize=25;" vertex="1" parent="1">
          <mxGeometry x="485.5" y="400" width="120" height="50" as="geometry" />
        </mxCell>
        <mxCell id="b1bb9-b2NGOC_ZLU9OX--2" style="edgeStyle=orthogonalEdgeStyle;rounded=0;orthogonalLoop=1;jettySize=auto;html=1;entryX=0;entryY=0.5;entryDx=0;entryDy=0;" edge="1" parent="1" source="b1bb9-b2NGOC_ZLU9OX--3">
          <mxGeometry relative="1" as="geometry">
            <mxPoint x="485.5" y="425" as="targetPoint" />
          </mxGeometry>
        </mxCell>
        <mxCell id="b1bb9-b2NGOC_ZLU9OX--3" value="&lt;font style=&quot;font-size: 20px;&quot;&gt;\(h_i^t\)&lt;/font&gt;" style="text;html=1;align=center;verticalAlign=middle;whiteSpace=wrap;rounded=0;" vertex="1" parent="1">
          <mxGeometry x="385.5" y="405" width="40" height="40" as="geometry" />
        </mxCell>
      </root>
    </mxGraphModel>
  </diagram>
</mxfile>
